<svg viewBox="0 0 960 440" xmlns="http://www.w3.org/2000/svg" font-family="Segoe UI, Helvetica, Arial, sans-serif">
  <defs>
    <marker id="ar" markerWidth="10" markerHeight="8" refX="8" refY="3" orient="auto" markerUnits="strokeWidth">
      <path d="M0,0 L8,3 L0,6 Z" fill="#1f6f5c"/>
    </marker>
    <marker id="ar2" markerWidth="10" markerHeight="8" refX="8" refY="3" orient="auto" markerUnits="strokeWidth">
      <path d="M0,0 L8,3 L0,6 Z" fill="#c2643f"/>
    </marker>
    <marker id="ar3" markerWidth="10" markerHeight="8" refX="8" refY="3" orient="auto" markerUnits="strokeWidth">
      <path d="M0,0 L8,3 L0,6 Z" fill="#0e7490"/>
    </marker>
  </defs>
  <rect x="6" y="6" width="948" height="428" rx="16" fill="#faf9f5" stroke="#e8e6dc"/>
  <text x="40" y="54" font-size="20" font-weight="700" fill="#141413">Build Great Loop · the 5-skill workflow</text>

  <!-- top row: author the per-run loop prompt -->
  <rect x="40" y="110" width="250" height="86" rx="12" fill="#ffffff" stroke="#c9d6cf"/>
  <text x="62" y="148" font-size="17" font-weight="700" fill="#1f6f5c">loop-spec</text>
  <text x="62" y="174" font-size="13" fill="#6b7280">intake → SPEC.md</text>

  <rect x="355" y="104" width="250" height="98" rx="12" fill="#e7f0ec" stroke="#1f6f5c" stroke-width="2"/>
  <text x="377" y="142" font-size="17" font-weight="700" fill="#14532d">loop-engineering</text>
  <text x="377" y="166" font-size="13" fill="#3f6b5c">core · interview → loop prompt</text>
  <text x="377" y="186" font-size="12" fill="#6b7280">paste-ready harness</text>

  <rect x="670" y="110" width="250" height="86" rx="12" fill="#ffffff" stroke="#c9d6cf"/>
  <text x="692" y="148" font-size="17" font-weight="700" fill="#1f6f5c">loop-eval</text>
  <text x="692" y="174" font-size="13" fill="#6b7280">success criteria + evals</text>

  <line x1="290" y1="150" x2="350" y2="150" stroke="#1f6f5c" stroke-width="2" marker-end="url(#ar)"/>
  <line x1="605" y1="150" x2="665" y2="150" stroke="#1f6f5c" stroke-width="2" marker-end="url(#ar)"/>

  <!-- bottom row: audit existing, and operate recurring -->
  <rect x="200" y="312" width="250" height="80" rx="12" fill="#ffffff" stroke="#c2643f"/>
  <text x="222" y="344" font-size="16" font-weight="700" fill="#c2643f">loop-review</text>
  <text x="222" y="366" font-size="12" fill="#6b7280">audit &amp; harden an existing loop</text>

  <rect x="510" y="312" width="250" height="80" rx="12" fill="#ffffff" stroke="#0e7490"/>
  <text x="532" y="340" font-size="16" font-weight="700" fill="#0e7490">loop-ops</text>
  <text x="532" y="360" font-size="12" fill="#6b7280">operate it recurring / unattended</text>
  <text x="532" y="378" font-size="11" fill="#8a8780">cadence · cost · safety gates · rollout</text>

  <!-- review feeds the prompt; engineering hands the prompt to ops -->
  <line x1="350" y1="312" x2="448" y2="206" stroke="#c2643f" stroke-width="2" marker-end="url(#ar2)"/>
  <line x1="520" y1="206" x2="618" y2="312" stroke="#0e7490" stroke-width="2" marker-end="url(#ar3)"/>

  <text x="40" y="420" font-size="12" fill="#8a8780">spec → engineering → eval   ·   review hardens any existing loop   ·   ops runs it on a cadence, safely</text>
</svg>
